Julian Lennon - Valotte - 1984

Atlantic Records, 80184-1, Charisma Records, Original US Pressing

LP, Vinyl Rip, 24/192, FLAC (tracks+.cue)

Thanks 0pp0

 01. Valotte (Lennon, Justin Clayton, Carlton Morales) - 4:15
 02. O.K. For You (Lennon, Clayton, Morales, Carmelo Luggeri) - 3:38
 03. On The Phone - 4:42
 04. Space - 4:22
 05. Well I Dont Know - 4:35
 06. Too Late for Goodbyes - 3:30
 07. Lonely - 3:50
 08. Say Youre Wrong - 3:25
 09. Jesse (China Burton) - 3:48
 10. Let Me Be - 2:12

All songs written by Julian Lennon, except where noted.

Musicians:

 Julian Lennon: Lead vocals, bass guitar, keyboards, Simmons drums & percussion
 Guitars: Justin Clayton & Carlton Morales
 Keyboards: Barry Beckett, David Lebolt & Peter Wood
 Drums: Roger Hawkins & Steve Holly
 Bass Guitars: David Hood, Marcus Miller & Carmine Rojas
 Percussion: Ralph MacDonald & Steve Holly
 Background Vocals: Rory Dodd, Eric Troyer & Julian Lennon
 Trumpets: Jon Faddis & Joe Shepley
 Saxophones: Michael Brecker, George Young, Lawrence Feldman & Ron Cuber

 Cameo Appearances:

 Michael Brecker: Saxophone solo on Lonely
 Jean \"Toots\" Thielemans: Harmonica on Too Late For Goodbyes
 Martin Briley: Guitar on Too Late For Goodbyes
 Dennis Herring: Guitar on Jesse

 Production

 Engineers: Michael Somers Abbott, Michael Alliare, Michael Barry, Bobby Cohen, John Davenport, Pete Greene, Scott James, Bradshaw Leigh, Peter Millus, John Penzotti, Bill Straus
 Mixing: Bradshaw Leigh
 Mastering: Ted Jensen

 The cover photo was taken by David Michael Kennedy
 Sleeve Design by Bob Defrin & Julian Lennon


CLEANING
 Spin Clean Machine / Vinyl Aerobics (patent pending)

 RECORDING
 Rega P3-24 W/TTPSU Audio-Technica Cartridge AT33EV Upgraded Rega Drive Belt (Cart @ 2g Phonostage @ 100 ohms)
 Dual Rega Felt Pads for VTA
 Project PhonoBox SE II
 E-MU 0204 USB 2.0
 MSI i5 Quad Laptop
 Adobe Audition 3.0 @ 32-192

 PROCESSING
 MSI i5 Quad Laptop
 Izotope RX Advance Manual Declick
 Izotope RX Advance Normalizing and dithering
 dBpoweramp 14.2 w/FLAC 1.21 (@lvl 5)for conversion and pic Tagging.
 Foobar 2000 1.1.8 w/discogs and DR report.

 ARTWORK
 Discogs

DR Report

 foobar2000 1.1.8 / Dynamic Range Meter 1.1.0 beta 6
 log date: 2011-10-19 19:45:03

 --------------------------------------------------------------------------------
 Analyzed: Julian Lennon / Valotte
 --------------------------------------------------------------------------------

 DR Peak RMS Duration Track
 --------------------------------------------------------------------------------
 DR13 -0.33 dB -16.60 dB 4:17 01-Valotte
 DR14 0.00 dB -15.94 dB 3:41 02-O.K. For You
 DR13 -0.91 dB -17.01 dB 4:50 03-On The Phone
 DR13 -0.57 dB -19.03 dB 4:24 04-Space
 DR13 -2.04 dB -16.87 dB 4:34 05-Well I Don\'t Know
 DR13 -0.55 dB -15.85 dB 3:38 06-Too Late For Goodbyes
 DR13 -1.84 dB -17.89 dB 3:53 07-Lonely
 DR13 0.00 dB -15.41 dB 3:32 08-Say You\'re Wrong
 DR13 -0.54 dB -16.02 dB 3:52 09-Jesse
 DR12 -4.83 dB -19.85 dB 2:06 10-Let Me Be
 --------------------------------------------------------------------------------

 Number of tracks: 10
 Official DR value: DR13

 Samplerate: 192000 Hz
 Channels: 2
 Bits per sample: 24
 Bitrate: 5085 kbps
 Codec: FLAC